<svg width="830.01648" height="1052.4223375" xmlns="http://www.w3.org/2000/svg" version="1.1">

 <g>
  <title>Layer 1</title>
  <g id="svg_1">
   <path id="svg_2" stroke-width="1.06667" fill="#C3423F" d="m358.86267,814.02281c-36.95143,-35.7452 -82.0483,-78.7868 -145.6,-138.9645c-75.17393,-71.1828 -201.28827,-191.4231 -207.93751,-198.2524c-3.19229,-3.2787 -5.57887,-6.1865 -5.30352,-6.4619c1.47506,-1.4751 169.09366,-49.3771 176.17781,-50.3481c6.38445,-0.8751 13.15501,0.8053 30.79438,7.6427c21.59715,8.3716 141.47119,57.7709 163.60217,67.4194l19.2,8.3707l0.31598,162.6149c0.29607,152.375 0.0628,176.0309 -1.73421,175.8937c-0.39331,-0.03 -13.6751,-12.5916 -29.5151,-27.9145zm77.33333,-97.0587c0,-67.7355 0.3166,-144.0089 0.70354,-169.4964l0.70354,-46.3409l19.82979,-7.884c10.90639,-4.3362 42.6298,-17.2008 70.49646,-28.5881c27.86667,-11.3873 65.68097,-26.7484 84.03177,-34.1359l33.365,-13.4318l15.7016,4.4718c8.6359,2.4595 50.1912,14.4693 92.3452,26.6883l76.6436,22.2165l-2.953,2.3228c-3.6554,2.8754 -6.183,5.2657 -309.8395,293.0073c-55.84637,52.9193 -69.58834,65.5741 -79.16133,72.8979c-1.77525,1.3582 -1.86667,-4.6035 -1.86667,-121.7275zm-38.93333,-260.4693c-14.28841,-5.1234 -72.85088,-29.1522 -112,-45.9549c-14.08,-6.043 -32.8,-13.7445 -41.6,-17.1143c-18.7222,-7.1694 -26.00156,-10.6492 -26.83826,-12.82959c-0.88195,-2.29832 0.64023,-5.58605 16.76205,-36.20414c29.87392,-56.73568 140.03884,-270.29965 165.06892,-320c5.90914,-11.73334 11.4168,-22.24183 12.23923,-23.35221c1.39816,-1.88763 1.74222,-1.6103 5.29342,4.26667c5.95344,9.85249 17.58878,32.09331 73.59801,140.68173c28.74582,55.73124 65.34336,126.53124 81.32786,157.33333c30.0011,57.81202 35.5088,69.16508 36.4915,75.22103c0.5294,3.26217 0.2466,3.71181 -3.5504,5.64408c-7.512,3.8227 -136.57231,57.0427 -161.20643,66.476c-15.82462,6.0597 -29.13286,10.5397 -31.11933,10.4756c-0.91661,-0.03 -7.42657,-2.119 -14.46657,-4.6433zm-370.66667,-43.1494c0,-2.121 12.55577,-16.317 113.06667,-127.83702c144.53351,-160.36455 167.3217,-185.35036 168.22447,-184.4476c0.53088,0.53087 -13.11501,27.92829 -27.95732,56.13109c-6.02054,11.44 -28.58311,54.88 -50.13906,96.53333c-52.87195,102.1664 -57.89606,111.35749 -64.88895,118.7077c-4.0945,4.30372 -7.47294,5.38765 -80.70581,25.8933c-29.62667,8.2956 -54.70667,15.3301 -55.73333,15.6321c-1.02667,0.302 -1.86667,0.026 -1.86667,-0.6129zm758.9333,-1.9161c-59.0233,-16.4415 -123.0264,-36.69533 -126.8852,-40.153c-3.9794,-3.56567 -11.4125,-17.61645 -86.4516,-163.41777c-15.0969,-29.33333 -33.1273,-64.13333 -40.06769,-77.33333c-13.50892,-25.69289 -16.47768,-32 -15.06243,-32c1.14758,0 13.67601,13.63578 45.57202,49.6c14.0482,15.84 39.4666,44.17907 56.4852,62.97571c17.0187,18.79664 51.8231,57.42618 77.3431,85.84342c25.52,28.41724 52.88,58.63851 60.8,67.15838c31.9059,34.32249 43.7333,47.65029 43.7333,49.28119c0,1.5126 -5.527,0.8141 -15.4667,-1.9546z"/>
  </g>
 </g>
</svg>