<svg version="1.2" xmlns="http://www.w3.org/2000/svg" viewBox="-18.13 -18.13 866.27 878.17">
	<title>d10</title>
	<style>
		.s0 { fill: #000000;stroke: #ffffff;stroke-linejoin: round;stroke-width: 15 } 
	</style>
	<g>
		<g id="svg_1">
			<path id="svg_2" class="s0" d="m358.9 814c-37-35.7-82.1-78.8-145.6-138.9-75.2-71.2-201.3-191.5-208-198.3-3.2-3.3-5.6-6.2-5.3-6.5 1.5-1.4 169.1-49.3 176.2-50.3 6.4-0.9 13.2 0.8 30.8 7.6 21.6 8.4 141.5 57.8 163.6 67.5l19.2 8.3 0.3 162.6c0.3 152.4 0.1 176.1-1.7 175.9-0.4 0-13.7-12.6-29.5-27.9zm77.3-97c0-67.8 0.3-144 0.7-169.5l0.7-46.4 19.8-7.9c10.9-4.3 42.7-17.2 70.5-28.5 27.9-11.4 65.7-26.8 84.1-34.2l33.3-13.4 15.7 4.5c8.7 2.4 50.2 14.4 92.4 26.6l76.6 22.3-2.9 2.3c-3.7 2.9-6.2 5.3-309.9 293-55.8 52.9-69.6 65.6-79.1 72.9-1.8 1.3-1.9-4.6-1.9-121.7zm-38.9-260.5c-14.3-5.1-72.9-29.2-112-46-14.1-6-32.8-13.7-41.6-17.1-18.8-7.1-26-10.6-26.9-12.8-0.9-2.3 0.7-5.6 16.8-36.2 29.9-56.7 140-270.3 165.1-320 5.9-11.7 11.4-22.2 12.2-23.4 1.4-1.8 1.7-1.6 5.3 4.3 5.9 9.9 17.6 32.1 73.6 140.7 28.7 55.7 65.3 126.5 81.3 157.3 30 57.8 35.5 69.2 36.5 75.2 0.5 3.3 0.3 3.8-3.5 5.7-7.6 3.8-136.6 57-161.3 66.5-15.8 6-29.1 10.5-31.1 10.4-0.9 0-7.4-2.1-14.4-4.6zm-370.7-43.2c0-2.1 12.6-16.3 113.1-127.8 144.5-160.4 167.3-185.3 168.2-184.4 0.5 0.5-13.1 27.9-28 56.1-6 11.4-28.6 54.9-50.1 96.5-52.9 102.2-57.9 111.4-64.9 118.7-4.1 4.3-7.5 5.4-80.7 25.9-29.6 8.3-54.7 15.4-55.7 15.7-1.1 0.3-1.9 0-1.9-0.7zm758.9-1.9c-59-16.4-123-36.7-126.9-40.1-3.9-3.6-11.4-17.6-86.4-163.4-15.1-29.4-33.1-64.2-40.1-77.4-13.5-25.7-16.5-32-15-32 1.1 0 13.6 13.7 45.5 49.6 14.1 15.9 39.5 44.2 56.5 63 17 18.8 51.8 57.4 77.4 85.8 25.5 28.5 52.8 58.7 60.8 67.2 31.9 34.3 43.7 47.7 43.7 49.3 0 1.5-5.5 0.8-15.5-2z"/>
		</g>
	</g>
</svg>