<svg version="1.2" xmlns="http://www.w3.org/2000/svg" viewBox="-18.13 -18.13 945.05 915.27">
	<title>d12</title>
	<style>
		.s0 { fill: #000000;stroke: #ffffff;stroke-linejoin: round;stroke-width: 15 } 
	</style>
	<g>
		<g id="svg_1">
			<path id="svg_2" class="s0" d="m311.9 878.4c-0.2-0.6-5.5-18.1-11.7-38.9-6.2-20.9-19.7-66-29.9-100.3-28.8-96.5-38.1-129.6-37.4-132.6 1.3-5.2 11.6-11.9 112.7-73.6 20.3-12.3 51.9-31.5 70.4-42.6 38.5-23.1 35.2-22.2 50.4-14.5 13.3 6.7 102.1 60.4 173.6 104.9 29 18.2 35 22.2 35.9 24.7 0.4 0.9-1.4 8.7-3.9 17.3-8.6 29.7-75.6 254.3-75.9 254.6-0.2 0.1-64.1 0.7-142.1 1.2-94.3 0.6-141.9 0.5-142.1-0.2zm-63.4-28.8c-6.2-4.7-28.8-18.4-63.7-38.9l-33.4-19.5-12.1-20.4c-14.6-24.6-37.2-63.8-46.5-80.7-3.7-6.7-15.7-27.6-26.7-46.4-11-18.7-30.3-52-43-73.9l-23.1-39.7 0.3-57.5 0.3-57.4 22.9 24.2c12.6 13.3 39.2 41.4 59.1 62.5 86.2 91.2 88.8 94.1 94.9 106.1 6.5 12.5 9.4 21.1 25.9 77.3 24.1 82.5 39.8 134.8 44.8 150.2 2.6 8.1 4.6 15.2 4.4 15.8-0.2 0.6-2-0.2-4.1-1.7zm409.2-8.8c0.9-2.8 15-49.5 31.3-103.7 16.4-54.3 31.8-104.2 34.2-111 7.6-20.5 11.6-27.2 26-42.9 28.8-31.4 96.1-102.7 141-149.2l18.1-18.8 0.3 56.1 0.2 56.1-8.9 15.5c-50.7 87.7-72.2 124.9-95.3 165.4-31.3 54.5-40.5 69-50.3 79.3-8.4 8.7-15.1 13.3-45.7 31.7-25.5 15.2-47 26.6-50.3 26.6-2.1 0-2.1-0.2-0.6-5.1zm-457.3-283.7c-2.5-2.2-22.8-23.7-45.2-47.8-22.4-24-60.6-64.8-84.9-90.5-63.7-67.6-62.8-66.5-62.8-69.1 0-2.5 14.4-28.8 35.2-64.4 37.2-63.5 113.5-191.1 115-192.2 2.3-1.8 9.3-1.7 19.2 0.3 27.1 5.5 222.4 52.8 249 60.2l4 1.2-0.3 135-0.2 135-22.4 13.8c-128.7 79.7-199 122.5-201.5 122.5-0.4 0-2.7-1.8-5.1-4zm495.6 1.4c-1.7-0.8-13-7.5-25-15-25.3-15.8-136.6-84.3-164.5-101.2-10.3-6.3-19.6-12.6-20.5-14-3.4-5.3-5-14.9-6-37.4-0.9-20.4-1.5-237.3-0.7-237.3 0.2 0 36.1-8.7 79.7-19.2 137.9-33.5 176.1-42.4 185.6-43.3l5.8-0.6 45.4 77.1c24.9 42.5 59 100.4 75.8 128.9l30.6 51.7-11.8 12.8c-112.2 121.9-185.8 199.1-189.7 199-0.8-0.1-2.9-0.7-4.7-1.5zm-246.4-450.4c-1.2-0.3-7.6-1.7-14.4-3.2-6.7-1.5-37.7-8.8-68.8-16.4-31.1-7.5-72.8-17.5-92.8-22.3-19.9-4.7-40.3-9.7-45.3-11.1l-9-2.4 4.8-3.3c8-5.4 23.5-13.8 59.2-32l34.2-17.4h137.1 137.1l28.7 15c61.3 32.1 74.5 40.5 63.7 40.5-5.2 0-54.8 11.6-157.5 36.8-61.9 15.3-71 17.1-77 15.8z"/>
		</g>
	</g>
</svg>