<svg version="1.2" xmlns="http://www.w3.org/2000/svg" viewBox="-18.13 -18.13 822.83 910.85">
	<title>d20</title>
	<style>
		.s0 { fill: #000000;stroke: #ffffff;stroke-linejoin: round;stroke-width: 15 } 
	</style>
	<g>
		<g id="svg_1">
			<path id="svg_2" class="s0" d="m324 849.4c-23.8-13.8-77.8-45.2-120-69.7-101.2-58.6-98.4-57-96.5-57.3 2-0.4 15.6 1.8 124.2 20.6 45.8 8 94.5 16.4 108.3 18.7 13.7 2.3 26.1 4.7 27.4 5.2l2.4 1.1v45.1c0 43.1-0.6 61.6-2 61.5-0.4 0-20.1-11.3-43.8-25.2zm97.5 23c-1.5-2.3-2.4-24.8-2.6-62.8-0.1-21.4-0.2-40-0.1-41.2 0.1-2 0.9-2.4 5.7-3 21.4-2.7 97.3-15.6 178.9-30.5 55.7-10.1 78.9-14 80.2-13.6 1.2 0.4-8.5 6.2-42.8 25.6-36.4 20.6-191.7 110.7-206.3 119.6-6.4 3.9-11.7 7.1-11.9 7.1-0.2 0-0.7-0.5-1.1-1.2zm-80.6-158.2c-0.6-0.6-57.2-10.7-144.4-25.7-42.8-7.4-91.5-15.8-108.3-18.7-38-6.8-64-10.6-71.1-10.6-9.4 0-9.3 0.5-3-15.8 21.7-56.3 105.1-265.3 113.6-284.8 3.7-8.4 7.2-15 7.9-14.8 2 0.6 13.2 20 76.7 132.7 13.3 23.6 27.6 48.5 31.7 55.4 4.2 6.8 9.2 15.6 11.1 19.5 2 3.8 16.4 29.3 32.1 56.6 51.9 90.1 60.2 104.8 60.2 105.7 0 0.9-5.6 1.4-6.5 0.5zm101.5-1.1c0-0.9 3.5-8 7.8-15.8 38.9-70.2 194-340.3 201.6-351.1l2.2-3.1 3.1 6.8c1.7 3.8 8.7 21.3 15.6 38.9 6.9 17.6 19.1 48.1 27 67.7 36.6 90.8 77.8 196.2 77.1 197.4-1.8 2.8-28.4 7.9-141.9 27.2-92.3 15.6-178.8 30.7-186.7 32.5-5.6 1.3-5.8 1.3-5.8-0.5zm-53.7-24.8c-9.2-14.4-81.1-139.8-134.1-233.9-10.4-18.5-22.6-39.8-27.2-47.5-4.5-7.6-9.7-16.7-11.4-20.2-1.8-3.6-10.3-18.7-19-33.6-8.6-15-17.7-30.9-20.1-35.4l-4.5-8.1 25.4-0.9c30.7-1.1 415.8-1.3 416.9-0.2 1 1 0.4 2.1-137.9 245.1-75.3 132.2-80.9 141.9-82.5 141.9-0.6 0-3.1-3.3-5.6-7.2zm393-153.4c-8.1-21.5-78.1-199.9-89-226.9l-3.8-9.3 4.5-3.7c11.3-9.1 61-40.2 81.7-51l10.2-5.3 0.7 2.5c0.8 3.1 0.8 183.5-0.1 252.6l-0.6 50.7-3.6-9.6zm-781.5-30.9c-0.9-43.6 1.1-233 2.7-251.1 0.5-6.1 1.4-11.5 1.9-12.1 1.4-1.3 8.1 2.2 36.5 19.2 28.5 17.1 57.6 36 57.6 37.5 0 3.2-85.2 218.3-94.4 238.4l-3.4 7.6zm181.7-244.6c1.6-2.8 109-135.4 126-155.4 4.5-5.3 12.4-15.2 17.6-21.9 5.3-6.7 16.3-20.4 24.5-30.4 8.2-10 21-25.7 28.3-34.9 7.3-9.3 13.9-16.8 14.6-16.8 1.5 0 26.5 28.9 45.1 52.2 7.2 9.1 15.6 19.4 18.6 23 3.1 3.5 17.8 21.5 32.7 40 14.9 18.4 42.7 52.8 61.8 76.2 55 67.5 53.7 65.9 51.8 67-4.3 2.3-45.2 2.9-227 2.9-185.4 0-195-0.1-194-1.9zm-64.4-10.3c-2.4-1.3-17.7-10.1-34.1-19.3-16.5-9.3-36.3-20.7-44.1-25.3l-14.3-8.5 3.6-2.4c11.5-7.8 53.5-31.5 208.9-118.2 46.4-25.9 53.5-29.7 54-29.2 0.7 0.6-10.3 14.6-47.5 60.4-100.9 124.6-118 145.1-120.6 145.1-0.9-0.1-3.6-1.2-5.9-2.6zm532-12.6c-7-8.4-22.7-27.7-35-42.9-12.3-15.3-25.2-31.1-28.8-35.2-3.5-4.1-11-13.3-16.5-20.3-5.5-7-15.8-19.8-22.9-28.3-26.8-32.2-54.1-66.2-53.6-66.7 0.3-0.3 20.1 10.6 44.1 24.2 24 13.6 84.4 47.7 134.3 75.7 49.9 28.1 91.4 51.4 92.3 52 1.2 0.7 0.3 1.6-4.1 4-3.2 1.7-23.3 13.1-44.8 25.3-43.4 24.6-48.5 27.4-50.8 27.4-0.9 0-7.3-6.8-14.2-15.2z"/>
		</g>
	</g>
</svg>