<svg width="836.23102" height="1037.4922125" xmlns="http://www.w3.org/2000/svg" version="1.1">

 <g>
  <title>Layer 1</title>
  <g id="svg_1">
   <path id="svg_2" stroke-width="1.06667" fill="#C3423F" d="m333.86667,784.89418c-303.36644,-235.3504 -333.86667,-259.4656 -333.86667,-263.9739c0,-1.9627 16.08337,-23.57413 84.89024,-114.06815c33.45528,-44 83.57474,-110 111.3766,-146.66667c89.68482,-118.28146 148.27662,-195.28818 163.11121,-214.37573c7.96874,-10.25332 18.60986,-24.75504 23.64693,-32.22606l9.15832,-13.58367l0.70835,78.53555c0.85317,94.59213 0.67293,611.92673 -0.24162,693.48733l-0.65003,57.9709l-58.13333,-45.0996zm106.38889,-12.442c-0.62672,-63.814 1.07036,-604.40324 2.21385,-705.20066l0.73059,-64.4006l28.8,38.24141c46.96545,62.36197 130.338,172.26107 182.3943,240.42646c29.3323,38.40935 133.0603,175.57927 164.6182,217.69111c9.4898,12.66348 17.2381,23.46348 17.2185,23.99998c-0.019,0.5366 -5.4197,5.1229 -12,10.1918c-6.5804,5.069 -88.7643,68.9335 -182.631,141.9211c-162.42478,126.2962 -198.93451,154.4627 -200.21638,154.4627c-0.31074,0 -0.81837,-25.8 -1.12806,-57.3333z"/>
  </g>
 </g>
</svg>