<svg version="1.2" xmlns="http://www.w3.org/2000/svg" viewBox="-18.13 -18.13 872.55 866.27">
	<title>d4</title>
	<style>
		.s0 { fill: #000000;stroke: #ffffff;stroke-linejoin: round;stroke-width: 15 } 
	</style>
	<g>
		<g id="svg_1">
			<path id="svg_2" class="s0" d="m333.9 784.9c-303.4-235.4-333.9-259.5-333.9-264 0-1.9 16.1-23.6 84.9-114 33.4-44 83.6-110 111.4-146.7 89.7-118.3 148.2-195.3 163.1-214.4 7.9-10.2 18.6-24.7 23.6-32.2l9.2-13.6 0.7 78.5c0.8 94.6 0.7 612-0.2 693.5l-0.7 58zm106.4-12.4c-0.6-63.9 1.1-604.5 2.2-705.2l0.7-64.4 28.8 38.2c47 62.4 130.4 172.3 182.4 240.4 29.4 38.4 133.1 175.6 164.6 217.7 9.5 12.7 17.3 23.5 17.3 24-0.1 0.5-5.5 5.1-12 10.2-6.6 5.1-88.8 68.9-182.7 141.9-162.4 126.3-198.9 154.5-200.2 154.5-0.3 0-0.8-25.8-1.1-57.3z"/>
		</g>
	</g>
</svg>