<svg xmlns="http://www.w3.org/2000/svg" version="1.1" viewBox="0 0 787.23 890.72">

 <g>
  <title>Layer 1</title>
  <g id="svg_1">
   <path id="svg_2" stroke-width="1.06667" fill="#000" d="m347.16687,879.47107c-11.05105,-6.172 -52.09105,-29.6304 -91.2,-52.1298c-39.10896,-22.4994 -90.0672,-51.7139 -113.24053,-64.9211c-23.17333,-13.2072 -55.09333,-31.6087 -70.93333,-40.8921c-15.84,-9.2835 -38.16,-22.0319 -49.6,-28.3298l-20.8,-11.4508l-0.82094,-16.3404c-1.09641,-21.8236 -0.4736,-399.83457 0.6626,-402.16796c0.79599,-1.63469 1.89531,-1.32266 10.41526,2.95632c8.64509,4.34182 39.52171,21.83582 71.34308,40.42135c6.74666,3.94045 47.78666,27.42979 91.2,52.19849c43.41333,24.7688 105.27796,60.3389 137.47696,79.0448l58.54363,34.0107l-0.73938,200.0646c-0.40665,110.0355 -1.07129,204.2705 -1.47696,209.411l-0.73759,9.3465l-20.0928,-11.2218zm69.33348,-21.6044c-0.38698,-18.04 -0.70444,-112.7871 -0.70547,-210.549l-0.002,-177.749l41.86666,-23.7565c85.35952,-48.4357 227.91795,-130.14952 278.13335,-159.42475c42.6222,-24.84846 45.8336,-26.58046 47.0426,-25.37139c2.9276,2.92757 3.2935,23.77606 3.824,217.91734l0.5467,200l-5.7067,3.2792c-3.1386,1.8036 -23.9466,13.7688 -46.24,26.5894c-22.2933,12.8206 -54.2133,31.0757 -70.9333,40.5669c-16.72,9.4912 -45.4096,25.955 -63.7546,36.5863c-18.3451,10.6313 -48.8251,28.0639 -67.73334,38.7391c-18.90829,10.6752 -43.73871,25.0145 -55.17871,31.865c-18.63651,11.16 -59.04339,34.1074 -60.05795,34.1074c-0.21878,0 -0.71441,-14.76 -1.10137,-32.8l0.00013,0zm-36.44068,-431.6031c-5.28,-3.0999 -26.64,-15.7117 -47.46666,-28.0262c-20.82667,-12.3144 -42.90667,-25.1897 -49.06667,-28.6117c-6.16,-3.422 -20.8,-11.839 -32.53333,-18.7044c-11.73334,-6.8655 -39.81334,-23.044 -62.4,-35.95239c-22.58667,-12.90836 -68.90667,-39.53401 -102.93334,-59.1681c-34.02666,-19.6341 -62.71929,-36.16755 -63.7614,-36.741c-1.55372,-0.85499 3.24595,-4.08348 26.66666,-17.93731c15.70878,-9.29206 69.60141,-41.23412 119.76141,-70.98234c50.16,-29.74822 114.24,-67.67231 142.4,-84.27576c28.16,-16.60345 54.82518,-32.45912 59.25596,-35.23481c10.81947,-6.77794 18.578,-10.62953 21.41182,-10.62953c4.39285,0 40.969,20.8523 129.99889,74.11318c26.69333,15.96892 82.13328,48.84958 123.19998,73.06814c110.0736,64.91457 116.2345,68.64443 116.5924,70.58589c0.4655,2.5257 -21.1449,15.33812 -140.0591,83.03861c-54.2265,30.87232 -124.23497,70.92342 -198.87574,113.77462c-16.68835,9.5807 -30.84835,17.397 -31.46666,17.3695c-0.61832,-0.028 -5.44422,-2.5864 -10.72422,-5.6864z"/>
  </g>
 </g>
</svg>