<svg version="1.2" xmlns="http://www.w3.org/2000/svg" viewBox="-18.12 -18.13 823.45 926.97">
	<title>d6</title>
	<style>
		.s0 { fill: #000000;stroke: #ffffff;stroke-linejoin: round;stroke-width: 15 } 
	</style>
	<g>
		<g id="svg_1">
			<path id="svg_2" class="s0" d="m347.2 879.5c-11.1-6.2-52.1-29.7-91.2-52.2-39.1-22.5-90.1-51.7-113.3-64.9-23.1-13.2-55.1-31.6-70.9-40.9-15.8-9.3-38.2-22-49.6-28.3l-20.8-11.5-0.8-16.3c-1.1-21.8-0.5-399.8 0.6-402.2 0.8-1.6 1.9-1.3 10.4 3 8.7 4.3 39.6 21.8 71.4 40.4 6.7 4 47.8 27.4 91.2 52.2 43.4 24.8 105.3 60.4 137.5 79.1l58.5 34-0.7 200c-0.4 110.1-1.1 204.3-1.5 209.4l-0.7 9.4zm69.3-21.6c-0.4-18.1-0.7-112.8-0.7-210.6v-177.7l41.9-23.8c85.3-48.4 227.9-130.1 278.1-159.4 42.6-24.8 45.8-26.6 47-25.4 3 3 3.3 23.8 3.9 218l0.5 200-5.7 3.2c-3.1 1.8-24 13.8-46.2 26.6-22.3 12.8-54.3 31.1-71 40.6-16.7 9.5-45.4 25.9-63.7 36.6-18.4 10.6-48.9 28-67.8 38.7-18.9 10.7-43.7 25-55.1 31.9-18.7 11.1-59.1 34.1-60.1 34.1-0.2 0-0.7-14.8-1.1-32.8zm-36.4-431.6c-5.3-3.1-26.7-15.7-47.5-28-20.8-12.4-42.9-25.2-49.1-28.7-6.1-3.4-20.8-11.8-32.5-18.7-11.7-6.8-39.8-23-62.4-35.9-22.6-12.9-68.9-39.5-102.9-59.2-34.1-19.6-62.8-36.1-63.8-36.7-1.6-0.9 3.2-4.1 26.7-18 15.7-9.2 69.6-41.2 119.7-70.9 50.2-29.8 114.3-67.7 142.4-84.3 28.2-16.6 54.8-32.5 59.3-35.2 10.8-6.8 18.6-10.7 21.4-10.7 4.4 0 41 20.9 130 74.1 26.7 16 82.1 48.9 123.2 73.1 110.1 64.9 116.2 68.6 116.6 70.6 0.4 2.5-21.2 15.3-140.1 83-54.2 30.9-124.2 71-198.9 113.8-16.6 9.6-30.8 17.4-31.4 17.4-0.6-0.1-5.5-2.6-10.7-5.7z"/>
		</g>
	</g>
</svg>