<svg xmlns="http://www.w3.org/2000/svg" version="1.1" viewBox="0 -0.03 866.05 838.47">

 <g>
  <title>Layer 1</title>
  <g id="svg_1">
   <path id="svg_2" stroke-width="1.06667" fill="#000" d="m455.23464,747.73335l-0.0291,-90.6667l48.26341,-22.8449c26.54485,-12.5648 83.5434,-39.4954 126.6633,-59.8458c43.12,-20.3504 93.28,-44.0914 111.4667,-52.7579c38.078,-18.1451 51.7993,-24.3077 52.5194,-23.5876c0.2804,0.2805 -75.8471,76.9783 -169.1723,170.4398l-169.68226,169.9298l-0.0291,-90.6667l-0.00005,0zm-143.38762,-5.8667c-99.81592,-99.3801 -241.05813,-242.0788 -240.32936,-242.8076c0.64288,-0.6429 5.68665,1.63 37.21888,16.7721c16.021,7.6935 54.0891,25.6425 84.59576,39.8868c30.50667,14.2442 85.70667,40.2632 122.66667,57.82c36.96,17.5567 73.06231,34.533 80.22737,37.725l13.02737,5.8037l-0.10539,56c-0.058,30.8 -0.4003,71.36 -0.7607,90.1334l-0.65532,34.1333l-95.88528,-95.4667zm144.06148,-259.5674c-0.38969,-68.1446 -0.70844,-204.5393 -0.70834,-303.09927l0.00019,-179.2l169.3326,169.46414c93.133,93.20528 185.5731,185.94153 205.4226,206.08063l36.0899,36.6165l-13.6899,6.8552c-13.9924,7.0066 -243.9528,116.0566 -268.0899,127.1315c-22.72518,10.427 -123.6053,57.7519 -125.95767,59.0893c-1.53761,0.8742 -1.75524,-10.2763 -2.39948,-122.938zm-51.90953,122.2684c-0.88,-0.3285 -22,-10.1894 -46.93333,-21.9132c-24.93334,-11.7237 -63.57334,-29.8409 -85.86667,-40.2604c-22.29333,-10.4195 -67.41333,-31.6411 -100.26667,-47.159c-32.85333,-15.518 -80.85333,-38.1477 -106.66666,-50.2883c-50.32501,-23.669 -63.5798,-30.3528 -64.26407,-32.4056c-0.51561,-1.5469 126.47478,-129.9211 290.9703,-294.14117l118.59862,-118.4l-0.65052,263.46666c-0.6227,252.20371 -1.33024,341.96561 -2.69403,341.78241c-0.34484,-0.046 -1.34697,-0.3529 -2.22697,-0.6814z"/>
  </g>
 </g>
</svg>