<svg version="1.2" xmlns="http://www.w3.org/2000/svg" viewBox="-18.13 -18.02 902.27 874.53">
	<title>d8</title>
	<style>
		.s0 { fill: #000000;stroke: #ffffff;stroke-linejoin: round;stroke-width: 15 } 
	</style>
	<g>
		<g id="svg_1">
			<path id="svg_2" class="s0" d="m455.2 747.7v-90.6l48.3-22.9c26.5-12.5 83.5-39.5 126.6-59.8 43.2-20.4 93.3-44.1 111.5-52.8 38.1-18.1 51.8-24.3 52.5-23.6 0.3 0.3-75.8 77-169.2 170.5l-169.6 169.9-0.1-90.7zm-143.4-5.8c-99.8-99.4-241-242.1-240.3-242.8 0.7-0.7 5.7 1.6 37.2 16.7 16.1 7.7 54.1 25.7 84.6 39.9 30.5 14.3 85.7 40.3 122.7 57.8 37 17.6 73.1 34.6 80.2 37.8l13.1 5.8-0.2 56c0 30.8-0.4 71.3-0.7 90.1l-0.7 34.1zm144.1-259.5c-0.4-68.2-0.7-204.6-0.7-303.1v-179.2l169.3 169.4c93.2 93.2 185.6 186 205.4 206.1l36.1 36.6-13.7 6.9c-14 7-243.9 116-268 127.1-22.8 10.4-123.7 57.8-126 59.1-1.5 0.9-1.8-10.3-2.4-122.9zm-51.9 122.2c-0.9-0.3-22-10.2-46.9-21.9-25-11.7-63.6-29.8-85.9-40.2-22.3-10.5-67.4-31.7-100.3-47.2-32.8-15.5-80.8-38.1-106.6-50.3-50.4-23.7-63.6-30.3-64.3-32.4-0.5-1.5 126.5-129.9 291-294.1l118.6-118.4-0.7 263.4c-0.6 252.2-1.3 342-2.7 341.8-0.3 0-1.3-0.3-2.2-0.7z"/>
		</g>
	</g>
</svg>